<mxfile host="app.diagrams.net" modified="2022-03-15T15:21:42.913Z" agent="5.0 (Macintosh; Intel Mac OS X 10_15_7) AppleWebKit/537.36 (KHTML, like Gecko) Chrome/99.0.4844.51 Safari/537.36" etag="W3cchhJroO6xdPLqyY3r" version="17.1.2" type="github">
  <diagram id="kgpKYQtTHZ0yAKxKKP6v" name="Page-1">
    <mxGraphModel dx="1066" dy="688" grid="1" gridSize="10" guides="1" tooltips="1" connect="1" arrows="1" fold="1" page="1" pageScale="1" pageWidth="850" pageHeight="1100" math="0" shadow="0">
      <root>
        <mxCell id="0" />
        <mxCell id="1" parent="0" />
        <mxCell id="3nuBFxr9cyL0pnOWT2aG-1" value="Application" style="shape=umlLifeline;perimeter=lifelinePerimeter;container=1;collapsible=0;recursiveResize=0;rounded=0;shadow=0;strokeWidth=1;fillColor=#dae8fc;strokeColor=#6c8ebf;" parent="1" vertex="1">
          <mxGeometry x="120" y="80" width="100" height="240" as="geometry" />
        </mxCell>
        <mxCell id="3nuBFxr9cyL0pnOWT2aG-2" value="App &#xa;Backend" style="points=[];perimeter=orthogonalPerimeter;rounded=0;shadow=0;strokeWidth=1;" parent="3nuBFxr9cyL0pnOWT2aG-1" vertex="1">
          <mxGeometry x="-30" y="70" width="85" height="170" as="geometry" />
        </mxCell>
        <mxCell id="3nuBFxr9cyL0pnOWT2aG-4" value="" style="points=[];perimeter=orthogonalPerimeter;rounded=0;shadow=0;strokeWidth=1;" parent="3nuBFxr9cyL0pnOWT2aG-1" vertex="1">
          <mxGeometry x="50" y="120" width="10" height="80" as="geometry" />
        </mxCell>
        <mxCell id="3nuBFxr9cyL0pnOWT2aG-5" value="Control Pane" style="shape=umlLifeline;perimeter=lifelinePerimeter;container=1;collapsible=0;recursiveResize=0;rounded=0;shadow=0;strokeWidth=1;fillColor=#dae8fc;strokeColor=#6c8ebf;" parent="1" vertex="1">
          <mxGeometry x="490" y="80" width="150" height="240" as="geometry" />
        </mxCell>
        <mxCell id="3nuBFxr9cyL0pnOWT2aG-6" value="CP &#xa;Backend" style="points=[];perimeter=orthogonalPerimeter;rounded=0;shadow=0;strokeWidth=1;" parent="3nuBFxr9cyL0pnOWT2aG-5" vertex="1">
          <mxGeometry x="60" y="80" width="85" height="160" as="geometry" />
        </mxCell>
        <mxCell id="Vi2uLAeQ4OKhJLJsOUmt-8" value="Python VPC&lt;br&gt;Failover API" style="rounded=1;whiteSpace=wrap;html=1;fontSize=10;strokeColor=#d6b656;fillColor=#fff2cc;" parent="3nuBFxr9cyL0pnOWT2aG-5" vertex="1">
          <mxGeometry x="62" y="190" width="80" height="30" as="geometry" />
        </mxCell>
        <mxCell id="Vi2uLAeQ4OKhJLJsOUmt-26" value="" style="endArrow=none;dashed=1;html=1;dashPattern=1 3;strokeWidth=2;rounded=0;fontSize=9;entryX=-0.012;entryY=0.71;entryDx=0;entryDy=0;entryPerimeter=0;exitX=0.012;exitY=0.379;exitDx=0;exitDy=0;exitPerimeter=0;strokeColor=#FF0000;" parent="3nuBFxr9cyL0pnOWT2aG-5" source="3nuBFxr9cyL0pnOWT2aG-6" target="3nuBFxr9cyL0pnOWT2aG-6" edge="1">
          <mxGeometry width="50" height="50" relative="1" as="geometry">
            <mxPoint x="-50" y="290" as="sourcePoint" />
            <mxPoint y="240" as="targetPoint" />
            <Array as="points">
              <mxPoint y="110" />
            </Array>
          </mxGeometry>
        </mxCell>
        <mxCell id="Vi2uLAeQ4OKhJLJsOUmt-2" value="Application &lt;br&gt;(Realm / mobile)" style="rounded=1;whiteSpace=wrap;html=1;fillColor=#fff2cc;strokeColor=#d6b656;" parent="1" vertex="1">
          <mxGeometry x="230" y="110" width="110" height="30" as="geometry" />
        </mxCell>
        <mxCell id="Vi2uLAeQ4OKhJLJsOUmt-3" value="Query &lt;br&gt;(Search + Find)" style="rounded=1;whiteSpace=wrap;html=1;fillColor=#fff2cc;strokeColor=#d6b656;" parent="1" vertex="1">
          <mxGeometry x="250" y="140" width="110" height="30" as="geometry" />
        </mxCell>
        <mxCell id="Vi2uLAeQ4OKhJLJsOUmt-4" value="Fail" style="swimlane;fontStyle=0;childLayout=stackLayout;horizontal=1;startSize=20;horizontalStack=0;resizeParent=1;resizeParentMax=0;resizeLast=0;collapsible=1;marginBottom=0;fillColor=#f8cecc;strokeColor=#b85450;" parent="1" vertex="1">
          <mxGeometry x="400" y="130" width="90" height="80" as="geometry" />
        </mxCell>
        <mxCell id="Vi2uLAeQ4OKhJLJsOUmt-5" value="Network fail" style="text;strokeColor=default;fillColor=none;align=left;verticalAlign=middle;spacingLeft=4;spacingRight=4;overflow=hidden;points=[[0,0.5],[1,0.5]];portConstraint=eastwest;rotatable=0;fontSize=10;" parent="Vi2uLAeQ4OKhJLJsOUmt-4" vertex="1">
          <mxGeometry y="20" width="90" height="20" as="geometry" />
        </mxCell>
        <mxCell id="Vi2uLAeQ4OKhJLJsOUmt-6" value="Availability Zone fail" style="text;strokeColor=default;fillColor=none;align=left;verticalAlign=middle;spacingLeft=4;spacingRight=4;overflow=hidden;points=[[0,0.5],[1,0.5]];portConstraint=eastwest;rotatable=0;fontSize=9;" parent="Vi2uLAeQ4OKhJLJsOUmt-4" vertex="1">
          <mxGeometry y="40" width="90" height="20" as="geometry" />
        </mxCell>
        <mxCell id="Vi2uLAeQ4OKhJLJsOUmt-7" value="Region fail" style="text;strokeColor=none;fillColor=none;align=left;verticalAlign=middle;spacingLeft=4;spacingRight=4;overflow=hidden;points=[[0,0.5],[1,0.5]];portConstraint=eastwest;rotatable=0;fontSize=10;" parent="Vi2uLAeQ4OKhJLJsOUmt-4" vertex="1">
          <mxGeometry y="60" width="90" height="20" as="geometry" />
        </mxCell>
        <mxCell id="Vi2uLAeQ4OKhJLJsOUmt-12" value="&lt;div style=&quot;text-align: justify&quot;&gt;&lt;span style=&quot;font-size: 13px&quot;&gt;Atlas&lt;/span&gt;&lt;/div&gt;" style="rounded=0;whiteSpace=wrap;html=1;fontSize=10;strokeColor=#6c8ebf;align=center;fillColor=#dae8fc;" parent="1" vertex="1">
          <mxGeometry x="305" y="350" width="120" height="20" as="geometry" />
        </mxCell>
        <mxCell id="Vi2uLAeQ4OKhJLJsOUmt-13" value="Region 1" style="shape=cylinder3;whiteSpace=wrap;html=1;boundedLbl=1;backgroundOutline=1;size=15;fontSize=13;strokeColor=#005700;fillColor=#008a00;fontColor=#ffffff;" parent="1" vertex="1">
          <mxGeometry x="265" y="370" width="60" height="80" as="geometry" />
        </mxCell>
        <mxCell id="Vi2uLAeQ4OKhJLJsOUmt-14" value="Region 2" style="shape=cylinder3;whiteSpace=wrap;html=1;boundedLbl=1;backgroundOutline=1;size=15;fontSize=13;strokeColor=#005700;fillColor=#008a00;fontColor=#ffffff;" parent="1" vertex="1">
          <mxGeometry x="335" y="370" width="60" height="80" as="geometry" />
        </mxCell>
        <mxCell id="Vi2uLAeQ4OKhJLJsOUmt-15" value="" style="endArrow=none;dashed=1;html=1;dashPattern=1 3;strokeWidth=2;rounded=0;fontSize=13;exitX=0;exitY=0;exitDx=0;exitDy=15;exitPerimeter=0;fillColor=#008a00;strokeColor=#005700;" parent="1" source="Vi2uLAeQ4OKhJLJsOUmt-13" edge="1">
          <mxGeometry width="50" height="50" relative="1" as="geometry">
            <mxPoint x="440" y="380" as="sourcePoint" />
            <mxPoint x="170" y="320" as="targetPoint" />
          </mxGeometry>
        </mxCell>
        <mxCell id="Vi2uLAeQ4OKhJLJsOUmt-16" value="" style="endArrow=none;dashed=1;html=1;dashPattern=1 3;strokeWidth=2;rounded=0;fontSize=13;fillColor=#008a00;strokeColor=#005700;" parent="1" source="Vi2uLAeQ4OKhJLJsOUmt-14" edge="1">
          <mxGeometry width="50" height="50" relative="1" as="geometry">
            <mxPoint x="300" y="395" as="sourcePoint" />
            <mxPoint x="170" y="320" as="targetPoint" />
          </mxGeometry>
        </mxCell>
        <mxCell id="Vi2uLAeQ4OKhJLJsOUmt-17" value="&lt;font style=&quot;font-size: 9px&quot;&gt;Repeat Queries&lt;/font&gt;" style="text;html=1;strokeColor=#36393d;fillColor=#ffff88;align=center;verticalAlign=middle;whiteSpace=wrap;rounded=0;fontSize=13;dashed=1;" parent="1" vertex="1">
          <mxGeometry x="170" y="360" width="70" height="20" as="geometry" />
        </mxCell>
        <mxCell id="Vi2uLAeQ4OKhJLJsOUmt-21" value="start / stop (app servers)&lt;br&gt;block network traffic" style="endArrow=classic;startArrow=classic;html=1;rounded=0;fontSize=13;exitX=1;exitY=0.761;exitDx=0;exitDy=0;exitPerimeter=0;" parent="1" source="3nuBFxr9cyL0pnOWT2aG-2" edge="1">
          <mxGeometry width="50" height="50" relative="1" as="geometry">
            <mxPoint x="440" y="370" as="sourcePoint" />
            <mxPoint x="550" y="279" as="targetPoint" />
          </mxGeometry>
        </mxCell>
        <mxCell id="Vi2uLAeQ4OKhJLJsOUmt-25" value="" style="endArrow=none;dashed=1;html=1;dashPattern=1 3;strokeWidth=2;rounded=0;fontSize=9;fillColor=#cce5ff;strokeColor=#0000FF;" parent="1" edge="1">
          <mxGeometry width="50" height="50" relative="1" as="geometry">
            <mxPoint x="370" y="260" as="sourcePoint" />
            <mxPoint x="370" y="70" as="targetPoint" />
          </mxGeometry>
        </mxCell>
        <mxCell id="shCVpKAQ6bhCE2i3IRE9-3" value="Region 3" style="shape=cylinder3;whiteSpace=wrap;html=1;boundedLbl=1;backgroundOutline=1;size=15;fontSize=13;strokeColor=#005700;fillColor=#008a00;fontColor=#ffffff;" vertex="1" parent="1">
          <mxGeometry x="405" y="370" width="60" height="80" as="geometry" />
        </mxCell>
        <mxCell id="shCVpKAQ6bhCE2i3IRE9-5" value="" style="endArrow=none;dashed=1;html=1;dashPattern=1 3;strokeWidth=2;rounded=0;fontSize=13;fillColor=#008a00;strokeColor=#005700;exitX=0;exitY=0;exitDx=0;exitDy=15;exitPerimeter=0;" edge="1" parent="1" source="shCVpKAQ6bhCE2i3IRE9-3">
          <mxGeometry width="50" height="50" relative="1" as="geometry">
            <mxPoint x="345" y="406.1538461538462" as="sourcePoint" />
            <mxPoint x="170" y="320" as="targetPoint" />
          </mxGeometry>
        </mxCell>
      </root>
    </mxGraphModel>
  </diagram>
</mxfile>
